<svg aria-hidden="true" style="position: absolute; width: 0; height: 0; overflow: hidden;" version="1.1" xmlns="http://www.w3.org/2000/svg" xmlns:xlink="http://www.w3.org/1999/xlink">
<defs>
<symbol id="icon-hat" viewBox="0 0 37 32">
<path fill="#9bb537" style="fill: var(--color1, #9bb537)" d="M7.325 12.723h23.133v17.735h-23.133v-17.735z"></path>
<path fill="#9bb537" style="fill: var(--color1, #9bb537)" d="M16.578 11.373c0 4.578-3.711 8.289-8.289 8.289s-8.289-3.711-8.289-8.289c0-4.578 3.711-8.289 8.289-8.289s8.289 3.711 8.289 8.289z"></path>
<path fill="#9bb537" style="fill: var(--color1, #9bb537)" d="M26.988 8.289c0 4.578-3.711 8.289-8.289 8.289s-8.289-3.711-8.289-8.289c0-4.578 3.711-8.289 8.289-8.289s8.289 3.711 8.289 8.289z"></path>
<path fill="#9bb537" style="fill: var(--color1, #9bb537)" d="M37.398 11.373c0 4.578-3.711 8.289-8.289 8.289s-8.289-3.711-8.289-8.289c0-4.578 3.711-8.289 8.289-8.289s8.289 3.711 8.289 8.289z"></path>
<path fill="#f8f8f8" style="fill: var(--color2, #f8f8f8)" d="M7.325 29.301h23.133v2.036c0 0.366-0.324 0.663-0.723 0.663h-21.687c-0.399 0-0.723-0.297-0.723-0.663v-2.036z"></path>
<path fill="#f8f8f8" style="fill: var(--color2, #f8f8f8)" d="M14.265 10.36c0-0.611 0.432-1.107 0.964-1.107s0.964 0.495 0.964 1.107v5.112c0 0.611-0.432 1.107-0.964 1.107s-0.964-0.495-0.964-1.107v-5.112z"></path>
<path fill="#f8f8f8" style="fill: var(--color2, #f8f8f8)" d="M17.349 10.36c0-0.611 0.604-1.107 1.349-1.107s1.349 0.495 1.349 1.107v5.112c0 0.611-0.604 1.107-1.349 1.107s-1.349-0.495-1.349-1.107v-5.112z"></path>
<path fill="#f8f8f8" style="fill: var(--color2, #f8f8f8)" d="M21.205 10.36c0-0.611 0.432-1.107 0.964-1.107s0.964 0.495 0.964 1.107v5.112c0 0.611-0.432 1.107-0.964 1.107s-0.964-0.495-0.964-1.107v-5.112z"></path>
<path fill="#050505" style="fill: var(--color3, #050505)" d="M28.184 3.131c0.289-0.030 0.581-0.045 0.878-0.045 3.714 0 6.861 2.413 7.938 5.746-0.289 0.030-0.581 0.045-0.878 0.045-3.714 0-6.861-2.413-7.938-5.746z"></path>
</symbol>
<symbol id="icon-heart" viewBox="0 0 32 32">
<path stroke="#f8f8f8" style="stroke: var(--color2, #f8f8f8)" stroke-linejoin="round" stroke-linecap="round" stroke-miterlimit="4" stroke-width="2.9091" d="M15.991 6.848c-2.666-3.117-7.111-3.955-10.451-1.101s-3.81 7.625-1.187 11c2.181 2.806 8.781 8.725 10.944 10.641 0.242 0.214 0.363 0.321 0.504 0.364 0.123 0.037 0.258 0.037 0.381 0 0.141-0.042 0.262-0.149 0.504-0.364 2.163-1.916 8.763-7.834 10.944-10.641 2.623-3.375 2.21-8.177-1.187-11.001s-7.785-2.015-10.451 1.101z"></path>
</symbol>
<symbol id="icon-arrow-down" viewBox="0 0 32 32">
<path stroke-linejoin="round" stroke-linecap="round" stroke-miterlimit="4" stroke-width="3.5556" d="M8 12l8 8 8-8"></path>
</symbol>
<symbol id="icon-cross" viewBox="0 0 32 32">
<path stroke-linejoin="round" stroke-linecap="round" stroke-miterlimit="4" stroke-width="3.5556" d="M24 8l-16 16"></path>
<path stroke-linejoin="round" stroke-linecap="round" stroke-miterlimit="4" stroke-width="3.5556" d="M8 8l16 16"></path>
</symbol>
<symbol id="icon-search" viewBox="0 0 32 32">
<path d="M28.947 27.054l-4.947-4.907c1.92-2.394 2.85-5.433 2.598-8.492s-1.666-5.905-3.951-7.953c-2.285-2.048-5.269-3.143-8.337-3.059s-5.987 1.34-8.157 3.51c-2.17 2.17-3.426 5.089-3.51 8.157s1.011 6.051 3.059 8.337c2.048 2.285 4.894 3.7 7.953 3.951s6.097-0.678 8.492-2.598l4.907 4.907c0.124 0.125 0.271 0.224 0.434 0.292s0.337 0.102 0.513 0.102 0.35-0.035 0.513-0.102c0.163-0.068 0.31-0.167 0.434-0.292 0.24-0.249 0.375-0.581 0.375-0.927s-0.134-0.678-0.375-0.927zM14.667 24.001c-1.846 0-3.65-0.547-5.185-1.573s-2.731-2.483-3.438-4.189c-0.706-1.705-0.891-3.582-0.531-5.393s1.249-3.474 2.554-4.779c1.305-1.305 2.968-2.194 4.779-2.554s3.687-0.175 5.393 0.531c1.705 0.706 3.163 1.903 4.189 3.438s1.573 3.339 1.573 5.185c0 2.475-0.983 4.849-2.734 6.6s-4.124 2.734-6.6 2.734z"></path>
</symbol>
<symbol id="icon-arrow" viewBox="0 0 32 32">
<path d="M14.133 16.947c-0.125-0.124-0.224-0.271-0.292-0.434s-0.103-0.337-0.103-0.513 0.035-0.35 0.103-0.513c0.068-0.163 0.167-0.31 0.292-0.434l6.12-6.107c0.125-0.124 0.224-0.271 0.292-0.434s0.103-0.337 0.103-0.513-0.035-0.35-0.103-0.513c-0.068-0.162-0.167-0.31-0.292-0.434-0.25-0.248-0.588-0.388-0.94-0.388s-0.69 0.139-0.94 0.388l-6.12 6.12c-0.749 0.75-1.17 1.767-1.17 2.827s0.421 2.077 1.17 2.827l6.12 6.12c0.248 0.246 0.583 0.385 0.933 0.387 0.175 0.001 0.349-0.033 0.512-0.099s0.31-0.164 0.435-0.288c0.125-0.124 0.224-0.271 0.292-0.434s0.103-0.337 0.103-0.513-0.035-0.35-0.103-0.513c-0.068-0.163-0.167-0.31-0.292-0.434l-6.12-6.107z"></path>
</symbol>

<symbol id="icon-angle-double-left" viewBox="0 0 16 28">
<path d="M9.797 21.5c0 0.125-0.063 0.266-0.156 0.359l-0.781 0.781c-0.094 0.094-0.234 0.156-0.359 0.156s-0.266-0.063-0.359-0.156l-7.281-7.281c-0.094-0.094-0.156-0.234-0.156-0.359s0.063-0.266 0.156-0.359l7.281-7.281c0.094-0.094 0.234-0.156 0.359-0.156s0.266 0.063 0.359 0.156l0.781 0.781c0.094 0.094 0.156 0.234 0.156 0.359s-0.063 0.266-0.156 0.359l-6.141 6.141 6.141 6.141c0.094 0.094 0.156 0.234 0.156 0.359zM15.797 21.5c0 0.125-0.063 0.266-0.156 0.359l-0.781 0.781c-0.094 0.094-0.234 0.156-0.359 0.156s-0.266-0.063-0.359-0.156l-7.281-7.281c-0.094-0.094-0.156-0.234-0.156-0.359s0.063-0.266 0.156-0.359l7.281-7.281c0.094-0.094 0.234-0.156 0.359-0.156s0.266 0.063 0.359 0.156l0.781 0.781c0.094 0.094 0.156 0.234 0.156 0.359s-0.063 0.266-0.156 0.359l-6.141 6.141 6.141 6.141c0.094 0.094 0.156 0.234 0.156 0.359z"></path>
</symbol>
<symbol id="icon-angle-right" viewBox="0 0 9 28">
<path d="M9.297 15c0 0.125-0.063 0.266-0.156 0.359l-7.281 7.281c-0.094 0.094-0.234 0.156-0.359 0.156s-0.266-0.063-0.359-0.156l-0.781-0.781c-0.094-0.094-0.156-0.219-0.156-0.359 0-0.125 0.063-0.266 0.156-0.359l6.141-6.141-6.141-6.141c-0.094-0.094-0.156-0.234-0.156-0.359s0.063-0.266 0.156-0.359l0.781-0.781c0.094-0.094 0.234-0.156 0.359-0.156s0.266 0.063 0.359 0.156l7.281 7.281c0.094 0.094 0.156 0.234 0.156 0.359z"></path>
</symbol>
<symbol id="icon-angle-left" viewBox="0 0 11 28">
<path d="M9.797 8.5c0 0.125-0.063 0.266-0.156 0.359l-6.141 6.141 6.141 6.141c0.094 0.094 0.156 0.234 0.156 0.359s-0.063 0.266-0.156 0.359l-0.781 0.781c-0.094 0.094-0.234 0.156-0.359 0.156s-0.266-0.063-0.359-0.156l-7.281-7.281c-0.094-0.094-0.156-0.234-0.156-0.359s0.063-0.266 0.156-0.359l7.281-7.281c0.094-0.094 0.234-0.156 0.359-0.156s0.266 0.063 0.359 0.156l0.781 0.781c0.094 0.094 0.156 0.219 0.156 0.359z"></path>
</symbol>
<symbol id="icon-angle-double-right" viewBox="0 0 16 28">
<path d="M9.297 15c0 0.125-0.063 0.266-0.156 0.359l-7.281 7.281c-0.094 0.094-0.234 0.156-0.359 0.156s-0.266-0.063-0.359-0.156l-0.781-0.781c-0.094-0.094-0.156-0.234-0.156-0.359s0.063-0.266 0.156-0.359l6.141-6.141-6.141-6.141c-0.094-0.094-0.156-0.234-0.156-0.359s0.063-0.266 0.156-0.359l0.781-0.781c0.094-0.094 0.234-0.156 0.359-0.156s0.266 0.063 0.359 0.156l7.281 7.281c0.094 0.094 0.156 0.234 0.156 0.359zM15.297 15c0 0.125-0.063 0.266-0.156 0.359l-7.281 7.281c-0.094 0.094-0.234 0.156-0.359 0.156s-0.266-0.063-0.359-0.156l-0.781-0.781c-0.094-0.094-0.156-0.234-0.156-0.359s0.063-0.266 0.156-0.359l6.141-6.141-6.141-6.141c-0.094-0.094-0.156-0.234-0.156-0.359s0.063-0.266 0.156-0.359l0.781-0.781c0.094-0.094 0.234-0.156 0.359-0.156s0.266 0.063 0.359 0.156l7.281 7.281c0.094 0.094 0.156 0.234 0.156 0.359z"></path>
</symbol>


<symbol id="icon-1-stars" viewBox="0 0 152 32">
<path fill="#eea10c" style="fill: var(--color1, #eea10c)" d="M13.556 5.772c0.504-1.552 2.699-1.552 3.204 0l1.423 4.38c0.226 0.694 0.872 1.164 1.602 1.164h4.606c1.631 0 2.31 2.088 0.99 3.047l-3.726 2.707c-0.59 0.429-0.837 1.189-0.612 1.883l1.423 4.38c0.504 1.552-1.272 2.842-2.592 1.883l-3.726-2.707c-0.59-0.429-1.39-0.429-1.98 0l-3.726 2.707c-1.32 0.959-3.096-0.331-2.592-1.883l1.423-4.38c0.225-0.694-0.022-1.454-0.612-1.883l-3.726-2.707c-1.32-0.959-0.642-3.047 0.99-3.047h4.606c0.73 0 1.376-0.47 1.602-1.164l1.423-4.38z"></path>
<path fill="#f8f8f8" style="fill: var(--color1, #f8f8f8)" opacity="0.1" d="M43.872 5.772c0.504-1.552 2.699-1.552 3.204 0l1.423 4.38c0.226 0.694 0.872 1.164 1.602 1.164h4.606c1.632 0 2.31 2.088 0.99 3.047l-3.726 2.707c-0.59 0.429-0.837 1.189-0.612 1.883l1.423 4.38c0.504 1.552-1.272 2.842-2.592 1.883l-3.726-2.707c-0.59-0.429-1.39-0.429-1.98 0l-3.726 2.707c-1.32 0.959-3.096-0.331-2.592-1.883l1.423-4.38c0.226-0.694-0.021-1.454-0.612-1.883l-3.726-2.707c-1.32-0.959-0.642-3.047 0.99-3.047h4.606c0.73 0 1.376-0.47 1.602-1.164l1.423-4.38z"></path>
<path fill="#f8f8f8" style="fill: var(--color1, #f8f8f8)" opacity="0.1" d="M74.188 5.772c0.504-1.552 2.699-1.552 3.204 0l1.423 4.38c0.226 0.694 0.872 1.164 1.602 1.164h4.606c1.632 0 2.31 2.088 0.99 3.047l-3.726 2.707c-0.59 0.429-0.837 1.189-0.612 1.883l1.423 4.38c0.504 1.552-1.272 2.842-2.592 1.883l-3.726-2.707c-0.59-0.429-1.39-0.429-1.98 0l-3.726 2.707c-1.32 0.959-3.096-0.331-2.592-1.883l1.423-4.38c0.226-0.694-0.021-1.454-0.612-1.883l-3.726-2.707c-1.32-0.959-0.642-3.047 0.99-3.047h4.606c0.73 0 1.376-0.47 1.602-1.164l1.423-4.38z"></path>
<path fill="#f8f8f8" style="fill: var(--color1, #f8f8f8)" opacity="0.1" d="M104.503 5.772c0.504-1.552 2.699-1.552 3.204 0l1.423 4.38c0.226 0.694 0.872 1.164 1.602 1.164h4.606c1.632 0 2.31 2.088 0.99 3.047l-3.726 2.707c-0.59 0.429-0.837 1.189-0.612 1.883l1.423 4.38c0.504 1.552-1.272 2.842-2.592 1.883l-3.726-2.707c-0.59-0.429-1.39-0.429-1.98 0l-3.726 2.707c-1.32 0.959-3.096-0.331-2.592-1.883l1.423-4.38c0.226-0.694-0.021-1.454-0.612-1.883l-3.726-2.707c-1.32-0.959-0.642-3.047 0.99-3.047h4.606c0.73 0 1.376-0.47 1.602-1.164l1.423-4.38z"></path>
<path fill="#f8f8f8" style="fill: var(--color2, #f8f8f8)" opacity="0.1" d="M134.819 5.772c0.504-1.552 2.699-1.552 3.204 0l1.423 4.38c0.226 0.694 0.872 1.164 1.602 1.164h4.606c1.631 0 2.31 2.088 0.99 3.047l-3.726 2.707c-0.59 0.429-0.837 1.189-0.612 1.883l1.423 4.38c0.504 1.552-1.272 2.842-2.592 1.883l-3.726-2.707c-0.59-0.429-1.39-0.429-1.98 0l-3.726 2.707c-1.32 0.959-3.096-0.331-2.592-1.883l1.423-4.38c0.226-0.694-0.021-1.454-0.612-1.883l-3.726-2.707c-1.32-0.959-0.642-3.047 0.99-3.047h4.606c0.73 0 1.376-0.47 1.602-1.164l1.423-4.38z"></path>
</symbol>
<symbol id="icon-2-stars" viewBox="0 0 152 32">
<path fill="#eea10c" style="fill: var(--color1, #eea10c)" d="M13.556 5.772c0.504-1.552 2.699-1.552 3.204 0l1.423 4.38c0.226 0.694 0.872 1.164 1.602 1.164h4.606c1.631 0 2.31 2.088 0.99 3.047l-3.726 2.707c-0.59 0.429-0.837 1.189-0.612 1.883l1.423 4.38c0.504 1.552-1.272 2.842-2.592 1.883l-3.726-2.707c-0.59-0.429-1.39-0.429-1.98 0l-3.726 2.707c-1.32 0.959-3.096-0.331-2.592-1.883l1.423-4.38c0.225-0.694-0.022-1.454-0.612-1.883l-3.726-2.707c-1.32-0.959-0.642-3.047 0.99-3.047h4.606c0.73 0 1.376-0.47 1.602-1.164l1.423-4.38z"></path>
<path fill="#eea10c" style="fill: var(--color1, #eea10c)" d="M43.872 5.772c0.504-1.552 2.699-1.552 3.204 0l1.423 4.38c0.226 0.694 0.872 1.164 1.602 1.164h4.606c1.632 0 2.31 2.088 0.99 3.047l-3.726 2.707c-0.59 0.429-0.837 1.189-0.612 1.883l1.423 4.38c0.504 1.552-1.272 2.842-2.592 1.883l-3.726-2.707c-0.59-0.429-1.39-0.429-1.98 0l-3.726 2.707c-1.32 0.959-3.096-0.331-2.592-1.883l1.423-4.38c0.226-0.694-0.021-1.454-0.612-1.883l-3.726-2.707c-1.32-0.959-0.642-3.047 0.99-3.047h4.606c0.73 0 1.376-0.47 1.602-1.164l1.423-4.38z"></path>
<path fill="#f8f8f8" style="fill: var(--color1, #f8f8f8)" opacity="0.1" d="M74.188 5.772c0.504-1.552 2.699-1.552 3.204 0l1.423 4.38c0.226 0.694 0.872 1.164 1.602 1.164h4.606c1.632 0 2.31 2.088 0.99 3.047l-3.726 2.707c-0.59 0.429-0.837 1.189-0.612 1.883l1.423 4.38c0.504 1.552-1.272 2.842-2.592 1.883l-3.726-2.707c-0.59-0.429-1.39-0.429-1.98 0l-3.726 2.707c-1.32 0.959-3.096-0.331-2.592-1.883l1.423-4.38c0.226-0.694-0.021-1.454-0.612-1.883l-3.726-2.707c-1.32-0.959-0.642-3.047 0.99-3.047h4.606c0.73 0 1.376-0.47 1.602-1.164l1.423-4.38z"></path>
<path fill="#f8f8f8" style="fill: var(--color1, #f8f8f8)" opacity="0.1" d="M104.503 5.772c0.504-1.552 2.699-1.552 3.204 0l1.423 4.38c0.226 0.694 0.872 1.164 1.602 1.164h4.606c1.632 0 2.31 2.088 0.99 3.047l-3.726 2.707c-0.59 0.429-0.837 1.189-0.612 1.883l1.423 4.38c0.504 1.552-1.272 2.842-2.592 1.883l-3.726-2.707c-0.59-0.429-1.39-0.429-1.98 0l-3.726 2.707c-1.32 0.959-3.096-0.331-2.592-1.883l1.423-4.38c0.226-0.694-0.021-1.454-0.612-1.883l-3.726-2.707c-1.32-0.959-0.642-3.047 0.99-3.047h4.606c0.73 0 1.376-0.47 1.602-1.164l1.423-4.38z"></path>
<path fill="#f8f8f8" style="fill: var(--color2, #f8f8f8)" opacity="0.1" d="M134.819 5.772c0.504-1.552 2.699-1.552 3.204 0l1.423 4.38c0.226 0.694 0.872 1.164 1.602 1.164h4.606c1.631 0 2.31 2.088 0.99 3.047l-3.726 2.707c-0.59 0.429-0.837 1.189-0.612 1.883l1.423 4.38c0.504 1.552-1.272 2.842-2.592 1.883l-3.726-2.707c-0.59-0.429-1.39-0.429-1.98 0l-3.726 2.707c-1.32 0.959-3.096-0.331-2.592-1.883l1.423-4.38c0.226-0.694-0.021-1.454-0.612-1.883l-3.726-2.707c-1.32-0.959-0.642-3.047 0.99-3.047h4.606c0.73 0 1.376-0.47 1.602-1.164l1.423-4.38z"></path>
</symbol>
<symbol id="icon-3-stars" viewBox="0 0 152 32">
<path fill="#eea10c" style="fill: var(--color1, #eea10c)" d="M13.556 5.772c0.504-1.552 2.699-1.552 3.204 0l1.423 4.38c0.226 0.694 0.872 1.164 1.602 1.164h4.606c1.631 0 2.31 2.088 0.99 3.047l-3.726 2.707c-0.59 0.429-0.837 1.189-0.612 1.883l1.423 4.38c0.504 1.552-1.272 2.842-2.592 1.883l-3.726-2.707c-0.59-0.429-1.39-0.429-1.98 0l-3.726 2.707c-1.32 0.959-3.096-0.331-2.592-1.883l1.423-4.38c0.225-0.694-0.022-1.454-0.612-1.883l-3.726-2.707c-1.32-0.959-0.642-3.047 0.99-3.047h4.606c0.73 0 1.376-0.47 1.602-1.164l1.423-4.38z"></path>
<path fill="#eea10c" style="fill: var(--color1, #eea10c)" d="M43.872 5.772c0.504-1.552 2.699-1.552 3.204 0l1.423 4.38c0.226 0.694 0.872 1.164 1.602 1.164h4.606c1.632 0 2.31 2.088 0.99 3.047l-3.726 2.707c-0.59 0.429-0.837 1.189-0.612 1.883l1.423 4.38c0.504 1.552-1.272 2.842-2.592 1.883l-3.726-2.707c-0.59-0.429-1.39-0.429-1.98 0l-3.726 2.707c-1.32 0.959-3.096-0.331-2.592-1.883l1.423-4.38c0.226-0.694-0.021-1.454-0.612-1.883l-3.726-2.707c-1.32-0.959-0.642-3.047 0.99-3.047h4.606c0.73 0 1.376-0.47 1.602-1.164l1.423-4.38z"></path>
<path fill="#eea10c" style="fill: var(--color1, #eea10c)" d="M74.188 5.772c0.504-1.552 2.699-1.552 3.204 0l1.423 4.38c0.226 0.694 0.872 1.164 1.602 1.164h4.606c1.632 0 2.31 2.088 0.99 3.047l-3.726 2.707c-0.59 0.429-0.837 1.189-0.612 1.883l1.423 4.38c0.504 1.552-1.272 2.842-2.592 1.883l-3.726-2.707c-0.59-0.429-1.39-0.429-1.98 0l-3.726 2.707c-1.32 0.959-3.096-0.331-2.592-1.883l1.423-4.38c0.226-0.694-0.021-1.454-0.612-1.883l-3.726-2.707c-1.32-0.959-0.642-3.047 0.99-3.047h4.606c0.73 0 1.376-0.47 1.602-1.164l1.423-4.38z"></path>
<path fill="#f8f8f8" style="fill: var(--color1, #f8f8f8)" opacity="0.1" d="M104.503 5.772c0.504-1.552 2.699-1.552 3.204 0l1.423 4.38c0.226 0.694 0.872 1.164 1.602 1.164h4.606c1.632 0 2.31 2.088 0.99 3.047l-3.726 2.707c-0.59 0.429-0.837 1.189-0.612 1.883l1.423 4.38c0.504 1.552-1.272 2.842-2.592 1.883l-3.726-2.707c-0.59-0.429-1.39-0.429-1.98 0l-3.726 2.707c-1.32 0.959-3.096-0.331-2.592-1.883l1.423-4.38c0.226-0.694-0.021-1.454-0.612-1.883l-3.726-2.707c-1.32-0.959-0.642-3.047 0.99-3.047h4.606c0.73 0 1.376-0.47 1.602-1.164l1.423-4.38z"></path>
<path fill="#f8f8f8" style="fill: var(--color2, #f8f8f8)" opacity="0.1" d="M134.819 5.772c0.504-1.552 2.699-1.552 3.204 0l1.423 4.38c0.226 0.694 0.872 1.164 1.602 1.164h4.606c1.631 0 2.31 2.088 0.99 3.047l-3.726 2.707c-0.59 0.429-0.837 1.189-0.612 1.883l1.423 4.38c0.504 1.552-1.272 2.842-2.592 1.883l-3.726-2.707c-0.59-0.429-1.39-0.429-1.98 0l-3.726 2.707c-1.32 0.959-3.096-0.331-2.592-1.883l1.423-4.38c0.226-0.694-0.021-1.454-0.612-1.883l-3.726-2.707c-1.32-0.959-0.642-3.047 0.99-3.047h4.606c0.73 0 1.376-0.47 1.602-1.164l1.423-4.38z"></path>
</symbol>
<symbol id="icon-4-stars" viewBox="0 0 152 32">
<path fill="#eea10c" style="fill: var(--color1, #eea10c)" d="M13.556 5.772c0.504-1.552 2.699-1.552 3.204 0l1.423 4.38c0.226 0.694 0.872 1.164 1.602 1.164h4.606c1.631 0 2.31 2.088 0.99 3.047l-3.726 2.707c-0.59 0.429-0.837 1.189-0.612 1.883l1.423 4.38c0.504 1.552-1.272 2.842-2.592 1.883l-3.726-2.707c-0.59-0.429-1.39-0.429-1.98 0l-3.726 2.707c-1.32 0.959-3.096-0.331-2.592-1.883l1.423-4.38c0.225-0.694-0.022-1.454-0.612-1.883l-3.726-2.707c-1.32-0.959-0.642-3.047 0.99-3.047h4.606c0.73 0 1.376-0.47 1.602-1.164l1.423-4.38z"></path>
<path fill="#eea10c" style="fill: var(--color1, #eea10c)" d="M43.872 5.772c0.504-1.552 2.699-1.552 3.204 0l1.423 4.38c0.226 0.694 0.872 1.164 1.602 1.164h4.606c1.632 0 2.31 2.088 0.99 3.047l-3.726 2.707c-0.59 0.429-0.837 1.189-0.612 1.883l1.423 4.38c0.504 1.552-1.272 2.842-2.592 1.883l-3.726-2.707c-0.59-0.429-1.39-0.429-1.98 0l-3.726 2.707c-1.32 0.959-3.096-0.331-2.592-1.883l1.423-4.38c0.226-0.694-0.021-1.454-0.612-1.883l-3.726-2.707c-1.32-0.959-0.642-3.047 0.99-3.047h4.606c0.73 0 1.376-0.47 1.602-1.164l1.423-4.38z"></path>
<path fill="#eea10c" style="fill: var(--color1, #eea10c)" d="M74.188 5.772c0.504-1.552 2.699-1.552 3.204 0l1.423 4.38c0.226 0.694 0.872 1.164 1.602 1.164h4.606c1.632 0 2.31 2.088 0.99 3.047l-3.726 2.707c-0.59 0.429-0.837 1.189-0.612 1.883l1.423 4.38c0.504 1.552-1.272 2.842-2.592 1.883l-3.726-2.707c-0.59-0.429-1.39-0.429-1.98 0l-3.726 2.707c-1.32 0.959-3.096-0.331-2.592-1.883l1.423-4.38c0.226-0.694-0.021-1.454-0.612-1.883l-3.726-2.707c-1.32-0.959-0.642-3.047 0.99-3.047h4.606c0.73 0 1.376-0.47 1.602-1.164l1.423-4.38z"></path>
<path fill="#eea10c" style="fill: var(--color1, #eea10c)" d="M104.503 5.772c0.504-1.552 2.699-1.552 3.204 0l1.423 4.38c0.226 0.694 0.872 1.164 1.602 1.164h4.606c1.632 0 2.31 2.088 0.99 3.047l-3.726 2.707c-0.59 0.429-0.837 1.189-0.612 1.883l1.423 4.38c0.504 1.552-1.272 2.842-2.592 1.883l-3.726-2.707c-0.59-0.429-1.39-0.429-1.98 0l-3.726 2.707c-1.32 0.959-3.096-0.331-2.592-1.883l1.423-4.38c0.226-0.694-0.021-1.454-0.612-1.883l-3.726-2.707c-1.32-0.959-0.642-3.047 0.99-3.047h4.606c0.73 0 1.376-0.47 1.602-1.164l1.423-4.38z"></path>
<path fill="#f8f8f8" style="fill: var(--color2, #f8f8f8)" opacity="0.2" d="M134.819 5.772c0.504-1.552 2.699-1.552 3.204 0l1.423 4.38c0.226 0.694 0.872 1.164 1.602 1.164h4.606c1.631 0 2.31 2.088 0.99 3.047l-3.726 2.707c-0.59 0.429-0.837 1.189-0.612 1.883l1.423 4.38c0.504 1.552-1.272 2.842-2.592 1.883l-3.726-2.707c-0.59-0.429-1.39-0.429-1.98 0l-3.726 2.707c-1.32 0.959-3.096-0.331-2.592-1.883l1.423-4.38c0.226-0.694-0.021-1.454-0.612-1.883l-3.726-2.707c-1.32-0.959-0.642-3.047 0.99-3.047h4.606c0.73 0 1.376-0.47 1.602-1.164l1.423-4.38z"></path>
</symbol>
<symbol id="icon-5-stars" viewBox="0 0 152 32">
<path fill="#eea10c" style="fill: var(--color1, #eea10c)" d="M13.556 5.772c0.504-1.552 2.699-1.552 3.204 0l1.423 4.38c0.226 0.694 0.872 1.164 1.602 1.164h4.606c1.631 0 2.31 2.088 0.99 3.047l-3.726 2.707c-0.59 0.429-0.837 1.189-0.612 1.883l1.423 4.38c0.504 1.552-1.272 2.842-2.592 1.883l-3.726-2.707c-0.59-0.429-1.39-0.429-1.98 0l-3.726 2.707c-1.32 0.959-3.096-0.331-2.592-1.883l1.423-4.38c0.225-0.694-0.022-1.454-0.612-1.883l-3.726-2.707c-1.32-0.959-0.642-3.047 0.99-3.047h4.606c0.73 0 1.376-0.47 1.602-1.164l1.423-4.38z"></path>
<path fill="#eea10c" style="fill: var(--color1, #eea10c)" d="M43.872 5.772c0.504-1.552 2.699-1.552 3.204 0l1.423 4.38c0.226 0.694 0.872 1.164 1.602 1.164h4.606c1.632 0 2.31 2.088 0.99 3.047l-3.726 2.707c-0.59 0.429-0.837 1.189-0.612 1.883l1.423 4.38c0.504 1.552-1.272 2.842-2.592 1.883l-3.726-2.707c-0.59-0.429-1.39-0.429-1.98 0l-3.726 2.707c-1.32 0.959-3.096-0.331-2.592-1.883l1.423-4.38c0.226-0.694-0.021-1.454-0.612-1.883l-3.726-2.707c-1.32-0.959-0.642-3.047 0.99-3.047h4.606c0.73 0 1.376-0.47 1.602-1.164l1.423-4.38z"></path>
<path fill="#eea10c" style="fill: var(--color1, #eea10c)" d="M74.188 5.772c0.504-1.552 2.699-1.552 3.204 0l1.423 4.38c0.226 0.694 0.872 1.164 1.602 1.164h4.606c1.632 0 2.31 2.088 0.99 3.047l-3.726 2.707c-0.59 0.429-0.837 1.189-0.612 1.883l1.423 4.38c0.504 1.552-1.272 2.842-2.592 1.883l-3.726-2.707c-0.59-0.429-1.39-0.429-1.98 0l-3.726 2.707c-1.32 0.959-3.096-0.331-2.592-1.883l1.423-4.38c0.226-0.694-0.021-1.454-0.612-1.883l-3.726-2.707c-1.32-0.959-0.642-3.047 0.99-3.047h4.606c0.73 0 1.376-0.47 1.602-1.164l1.423-4.38z"></path>
<path fill="#eea10c" style="fill: var(--color1, #eea10c)" d="M104.503 5.772c0.504-1.552 2.699-1.552 3.204 0l1.423 4.38c0.226 0.694 0.872 1.164 1.602 1.164h4.606c1.632 0 2.31 2.088 0.99 3.047l-3.726 2.707c-0.59 0.429-0.837 1.189-0.612 1.883l1.423 4.38c0.504 1.552-1.272 2.842-2.592 1.883l-3.726-2.707c-0.59-0.429-1.39-0.429-1.98 0l-3.726 2.707c-1.32 0.959-3.096-0.331-2.592-1.883l1.423-4.38c0.226-0.694-0.021-1.454-0.612-1.883l-3.726-2.707c-1.32-0.959-0.642-3.047 0.99-3.047h4.606c0.73 0 1.376-0.47 1.602-1.164l1.423-4.38z"></path>
<path fill="#eea10c" style="fill: var(--color2, #eea10c)" d="M134.819 5.772c0.504-1.552 2.699-1.552 3.204 0l1.423 4.38c0.226 0.694 0.872 1.164 1.602 1.164h4.606c1.631 0 2.31 2.088 0.99 3.047l-3.726 2.707c-0.59 0.429-0.837 1.189-0.612 1.883l1.423 4.38c0.504 1.552-1.272 2.842-2.592 1.883l-3.726-2.707c-0.59-0.429-1.39-0.429-1.98 0l-3.726 2.707c-1.32 0.959-3.096-0.331-2.592-1.883l1.423-4.38c0.226-0.694-0.021-1.454-0.612-1.883l-3.726-2.707c-1.32-0.959-0.642-3.047 0.99-3.047h4.606c0.73 0 1.376-0.47 1.602-1.164l1.423-4.38z"></path>
</symbol>
<symbol id="icon-cart" viewBox="0 0 32 32">
<path stroke-linejoin="round" stroke-linecap="round" stroke-miterlimit="4" stroke-width="2.6667" d="M12 29.333c0.736 0 1.333-0.597 1.333-1.333s-0.597-1.333-1.333-1.333c-0.736 0-1.333 0.597-1.333 1.333s0.597 1.333 1.333 1.333z"></path>
<path stroke-linejoin="round" stroke-linecap="round" stroke-miterlimit="4" stroke-width="2.6667" d="M26.667 29.333c0.736 0 1.333-0.597 1.333-1.333s-0.597-1.333-1.333-1.333c-0.736 0-1.333 0.597-1.333 1.333s0.597 1.333 1.333 1.333z"></path>
<path stroke-linejoin="round" stroke-linecap="round" stroke-miterlimit="4" stroke-width="2.4" d="M1.333 1.333h5.333l3.573 17.853c0.122 0.614 0.456 1.165 0.943 1.558s1.098 0.601 1.723 0.589h12.96c0.626 0.012 1.236-0.197 1.723-0.589s0.821-0.944 0.943-1.558l2.133-11.187h-22.667"></path>
</symbol>
<symbol id="icon-burger" viewBox="0 0 32 32">
<path stroke-linejoin="round" stroke-linecap="round" stroke-miterlimit="4" stroke-width="2" d="M28 13.333h-24"></path>
<path stroke-linejoin="round" stroke-linecap="round" stroke-miterlimit="4" stroke-width="2" d="M28 8h-24"></path>
<path stroke-linejoin="round" stroke-linecap="round" stroke-miterlimit="4" stroke-width="2" d="M28 18.667h-24"></path>
<path stroke-linejoin="round" stroke-linecap="round" stroke-miterlimit="4" stroke-width="2" d="M28 24h-24"></path>
</symbol>
<symbol id="icon-x" viewBox="0 0 32 32">
<path stroke-linejoin="round" stroke-linecap="round" stroke-miterlimit="4" stroke-width="2.88" d="M24 8l-16 16"></path>
<path stroke-linejoin="round" stroke-linecap="round" stroke-miterlimit="4" stroke-width="2.88" d="M8 8l16 16"></path>
</symbol>
</defs>
</svg>
